<svg xmlns="http://www.w3.org/2000/svg" aria-hidden="true" style="position:absolute;width:0;height:0;overflow:hidden">
  <!-- Centralized Logo Symbols
       Usage example:
       <svg role="img" aria-label="Tillerstead"><use href="/assets/img/logo/tillerstead-logo-sprite.svg#logo-full"/></svg>
       Monochrome (inherits color):
       <svg class="text-primary" role="img" aria-label="Tillerstead"><use href="/assets/img/logo/tillerstead-logo-sprite.svg#logo-full-mono"/></svg>
  -->
  <defs>
    <style>
      .mark{fill:var(--color-dark-primary,#1a1a1a);stroke:var(--color-accent,#8b6f47);stroke-linejoin:miter}
      .mark-thick{stroke-width:8}
      .mark-std{stroke-width:6}
      .word-main{fill:var(--color-primary,#00a86b);font:700 46px system-ui,-apple-system,BlinkMacSystemFont,'Segoe UI',sans-serif;letter-spacing:.5px}
      .word-sub{fill:var(--color-primary,#00a86b);font:500 18px system-ui,-apple-system,BlinkMacSystemFont,'Segoe UI',sans-serif;opacity:.9}
      .word-sub-small{font-size:16px}
      .mono-fill{fill:currentColor}
      .mono-stroke{stroke:currentColor;stroke-linejoin:miter}
    </style>
  </defs>

  <!-- Tile Mark -->
  <symbol id="logo-mark" viewBox="0 0 160 160">
    <path class="mark mark-thick" transform="translate(20 20)" d="M0 0h40v40H0zM50 0h40v40H50zM100 0h40v40h-40zM50 50h40v40h-40zM50 100h40v40h-40z"/>
  </symbol>

  <!-- Tile Mark Monochrome -->
  <symbol id="logo-mark-mono" viewBox="0 0 160 160">
    <path class="mono-fill mono-stroke mark-thick" transform="translate(20 20)" d="M0 0h40v40H0zM50 0h40v40H50zM100 0h40v40h-40zM50 50h40v40h-40zM50 100h40v40h-40z"/>
  </symbol>

  <!-- Full Horizontal Logo -->
  <symbol id="logo-full" viewBox="0 0 660 240">
    <path class="mark mark-std" transform="translate(20 26)" d="M0 0h40v40H0zM50 0h40v40H50zM100 0h40v40h-40zM50 50h40v40h-40zM50 100h40v40h-40z"/>
    <text x="210" y="82" class="word-main">TILLERSTEAD</text>
    <text x="210" y="122" class="word-sub">Tile • Remodeling • Property Maintenance</text>
    <text x="210" y="150" class="word-sub word-sub-small">NJ Licensed HIC #13VH10808800</text>
  </symbol>

  <!-- Full Horizontal Logo Monochrome -->
  <symbol id="logo-full-mono" viewBox="0 0 660 240">
    <path class="mono-fill mono-stroke mark-std" transform="translate(20 26)" d="M0 0h40v40H0zM50 0h40v40H50zM100 0h40v40h-40zM50 50h40v40h-40zM50 100h40v40h-40z"/>
    <text x="210" y="82" class="mono-fill" font-size="46" font-weight="700" font-family="system-ui,-apple-system,BlinkMacSystemFont,'Segoe UI',sans-serif">TILLERSTEAD</text>
    <text x="210" y="122" class="mono-fill" font-size="18" font-weight="500" font-family="system-ui,-apple-system,BlinkMacSystemFont,'Segoe UI',sans-serif">Tile • Remodeling • Property Maintenance</text>
    <text x="210" y="150" class="mono-fill" font-size="16" font-weight="500" font-family="system-ui,-apple-system,BlinkMacSystemFont,'Segoe UI',sans-serif">NJ Licensed HIC #13VH10808800</text>
  </symbol>

  <!-- Stacked Logo -->
  <symbol id="logo-stacked" viewBox="-12 -12 284 332">
    <path class="mark mark-std" transform="translate(65 20)" d="M0 0h36v36H0zM44 0h36v36H44zM88 0h36v36h-36zM44 44h36v36H44zM44 88h36v36H44z"/>
    <text x="130" y="190" class="word-main" text-anchor="middle" font-size="32">TILLERSTEAD</text>
    <text x="130" y="220" class="word-sub" text-anchor="middle" font-size="14">Tile • Remodeling • Property Maintenance</text>
    <text x="130" y="244" class="word-sub" text-anchor="middle" font-size="12">NJ Licensed HIC #13VH10808800</text>
  </symbol>

  <!-- Stacked Logo Monochrome -->
  <symbol id="logo-stacked-mono" viewBox="-12 -12 284 332">
    <path class="mono-fill mono-stroke mark-std" transform="translate(65 20)" d="M0 0h36v36H0zM44 0h36v36H44zM88 0h36v36h-36zM44 44h36v36H44zM44 88h36v36H44z"/>
    <text x="130" y="190" class="mono-fill" text-anchor="middle" font-size="32" font-weight="700" font-family="system-ui,-apple-system,BlinkMacSystemFont,'Segoe UI',sans-serif">TILLERSTEAD</text>
    <text x="130" y="220" class="mono-fill" text-anchor="middle" font-size="14" font-weight="500" font-family="system-ui,-apple-system,BlinkMacSystemFont,'Segoe UI',sans-serif">Tile • Remodeling • Property Maintenance</text>
    <text x="130" y="244" class="mono-fill" text-anchor="middle" font-size="12" font-weight="500" font-family="system-ui,-apple-system,BlinkMacSystemFont,'Segoe UI',sans-serif">NJ Licensed HIC #13VH10808800</text>
  </symbol>
</svg>
