<svg xmlns="http://www.w3.org/2000/svg" aria-hidden="true" style="position:absolute;width:0;height:0;overflow:hidden">
  <defs>
    <style>
      .tile{fill:#0d3b2c;stroke:#c99a3f;stroke-linejoin:miter;stroke-linecap:square}
      .mark-thick{stroke-width:10}
      .mark-std{stroke-width:8}
      .word-main{fill:#0d3b2c;font:800 46px 'Inter','Manrope',system-ui,-apple-system,BlinkMacSystemFont,'Segoe UI',sans-serif;letter-spacing:1.4px}
      .word-sub{fill:#0d3b2c;font:600 18px 'Inter','Manrope',system-ui,-apple-system,BlinkMacSystemFont,'Segoe UI',sans-serif;opacity:.92}
      .word-sub-small{font-size:16px}
      .mono-fill{fill:currentColor}
      .mono-stroke{stroke:currentColor;stroke-linejoin:miter;stroke-linecap:square}
    </style>
  </defs>
  <symbol id="logo-mark" viewBox="0 0 180 180">
    <g transform="translate(22 22)">
      <rect class="tile mark-thick" x="0" y="0" width="36" height="36" rx="3"/>
      <rect class="tile mark-thick" x="44" y="0" width="36" height="36" rx="3"/>
      <rect class="tile mark-thick" x="88" y="0" width="36" height="36" rx="3"/>
      <rect class="tile mark-thick" x="44" y="44" width="36" height="36" rx="3"/>
      <rect class="tile mark-thick" x="44" y="88" width="36" height="36" rx="3"/>
    </g>
  </symbol>
  <symbol id="logo-mark-mono" viewBox="0 0 180 180">
    <g transform="translate(22 22)">
      <rect class="mono-fill mono-stroke mark-thick" x="0" y="0" width="36" height="36" rx="3"/>
      <rect class="mono-fill mono-stroke mark-thick" x="44" y="0" width="36" height="36" rx="3"/>
      <rect class="mono-fill mono-stroke mark-thick" x="88" y="0" width="36" height="36" rx="3"/>
      <rect class="mono-fill mono-stroke mark-thick" x="44" y="44" width="36" height="36" rx="3"/>
      <rect class="mono-fill mono-stroke mark-thick" x="44" y="88" width="36" height="36" rx="3"/>
    </g>
  </symbol>
  <symbol id="logo-full" viewBox="0 0 660 240">
    <g transform="translate(20 22)">
      <rect class="tile mark-std" x="0" y="0" width="42" height="42" rx="3"/>
      <rect class="tile mark-std" x="52" y="0" width="42" height="42" rx="3"/>
      <rect class="tile mark-std" x="104" y="0" width="42" height="42" rx="3"/>
      <rect class="tile mark-std" x="52" y="52" width="42" height="42" rx="3"/>
      <rect class="tile mark-std" x="52" y="104" width="42" height="42" rx="3"/>
    </g>
    <text x="210" y="82" class="word-main">TILLERSTEAD</text>
    <text x="210" y="122" class="word-sub">Tile - Remodeling - Property Maintenance</text>
    <text x="210" y="150" class="word-sub word-sub-small">NJ Licensed HIC #13VH10808800</text>
  </symbol>
  <symbol id="logo-full-mono" viewBox="0 0 660 240">
    <g transform="translate(20 22)">
      <rect class="mono-fill mono-stroke mark-std" x="0" y="0" width="42" height="42" rx="3"/>
      <rect class="mono-fill mono-stroke mark-std" x="52" y="0" width="42" height="42" rx="3"/>
      <rect class="mono-fill mono-stroke mark-std" x="104" y="0" width="42" height="42" rx="3"/>
      <rect class="mono-fill mono-stroke mark-std" x="52" y="52" width="42" height="42" rx="3"/>
      <rect class="mono-fill mono-stroke mark-std" x="52" y="104" width="42" height="42" rx="3"/>
    </g>
    <text x="210" y="82" class="mono-fill" font-size="46" font-weight="800" font-family="Inter,Manrope,system-ui,-apple-system,BlinkMacSystemFont,'Segoe UI',sans-serif" letter-spacing="1.4">TILLERSTEAD</text>
    <text x="210" y="122" class="mono-fill" font-size="18" font-weight="600" font-family="Inter,Manrope,system-ui,-apple-system,BlinkMacSystemFont,'Segoe UI',sans-serif" opacity=".92" letter-spacing=".2">Tile - Remodeling - Property Maintenance</text>
    <text x="210" y="150" class="mono-fill" font-size="16" font-weight="600" font-family="Inter,Manrope,system-ui,-apple-system,BlinkMacSystemFont,'Segoe UI',sans-serif" opacity=".92" letter-spacing=".2">NJ Licensed HIC #13VH10808800</text>
  </symbol>
  <symbol id="logo-stacked" viewBox="-12 -12 284 332">
    <g transform="translate(64 16)">
      <rect class="tile mark-std" x="0" y="0" width="36" height="36" rx="3"/>
      <rect class="tile mark-std" x="44" y="0" width="36" height="36" rx="3"/>
      <rect class="tile mark-std" x="88" y="0" width="36" height="36" rx="3"/>
      <rect class="tile mark-std" x="44" y="44" width="36" height="36" rx="3"/>
      <rect class="tile mark-std" x="44" y="88" width="36" height="36" rx="3"/>
    </g>
    <text x="130" y="190" class="word-main" text-anchor="middle" font-size="32">TILLERSTEAD</text>
    <text x="130" y="220" class="word-sub" text-anchor="middle" font-size="14">Tile - Remodeling - Property Maintenance</text>
    <text x="130" y="244" class="word-sub" text-anchor="middle" font-size="12">NJ Licensed HIC #13VH10808800</text>
  </symbol>
  <symbol id="logo-stacked-mono" viewBox="-12 -12 284 332">
    <g transform="translate(64 16)">
      <rect class="mono-fill mono-stroke mark-std" x="0" y="0" width="36" height="36" rx="3"/>
      <rect class="mono-fill mono-stroke mark-std" x="44" y="0" width="36" height="36" rx="3"/>
      <rect class="mono-fill mono-stroke mark-std" x="88" y="0" width="36" height="36" rx="3"/>
      <rect class="mono-fill mono-stroke mark-std" x="44" y="44" width="36" height="36" rx="3"/>
      <rect class="mono-fill mono-stroke mark-std" x="44" y="88" width="36" height="36" rx="3"/>
    </g>
    <text x="130" y="190" class="mono-fill" text-anchor="middle" font-size="32" font-weight="800" font-family="Inter,Manrope,system-ui,-apple-system,BlinkMacSystemFont,'Segoe UI',sans-serif" letter-spacing="1.2">TILLERSTEAD</text>
    <text x="130" y="220" class="mono-fill" text-anchor="middle" font-size="14" font-weight="600" font-family="Inter,Manrope,system-ui,-apple-system,BlinkMacSystemFont,'Segoe UI',sans-serif" opacity=".92" letter-spacing=".2">Tile - Remodeling - Property Maintenance</text>
    <text x="130" y="244" class="mono-fill" text-anchor="middle" font-size="12" font-weight="600" font-family="Inter,Manrope,system-ui,-apple-system,BlinkMacSystemFont,'Segoe UI',sans-serif" opacity=".92" letter-spacing=".2">NJ Licensed HIC #13VH10808800</text>
  </symbol>
</svg>
